<svg xmlns="http://www.w3.org/2000/svg" width="400" height="300" viewBox="0 0 400 300" fill="none">
  <rect width="400" height="300" fill="#F3F4F6"/>
  <path d="M160 130C160 119 169 110 180 110H220C231 110 240 119 240 130V170C240 181 231 190 220 190H180C169 190 160 181 160 170V130Z" fill="#D1D5DB"/>
  <path d="M180 155C180 148.373 185.373 143 192 143C198.627 143 204 148.373 204 155C204 161.627 198.627 167 192 167C185.373 167 180 161.627 180 155Z" fill="#9CA3AF"/>
  <path d="M215 125C218.314 125 221 127.686 221 131C221 134.314 218.314 137 215 137C211.686 137 209 134.314 209 131C209 127.686 211.686 125 215 125Z" fill="#9CA3AF"/>
  <path d="M163 185L183 161L198 175L213 158L237 185H163Z" fill="#9CA3AF"/>
</svg>
